<?xml version="1.0" encoding="UTF-8"?>
<svg version="1.1" xmlns="http://www.w3.org/2000/svg" width="1080" height="1080">
<path d="M0 0 C356.4 0 712.8 0 1080 0 C1080 356.4 1080 712.8 1080 1080 C723.6 1080 367.2 1080 0 1080 C0 723.6 0 367.2 0 0 Z " fill="#FEFEFE" transform="translate(0,0)"/>
<path d="M0 0 C2.02301275 -0.00214832 4.04602428 -0.00602965 6.06903076 -0.01150513 C11.54226573 -0.02116617 17.01517249 -0.0059348 22.4883678 0.01440096 C28.22873709 0.03202681 33.96909707 0.02844578 39.70948792 0.02767944 C49.34886127 0.02955017 58.98810839 0.04688207 68.62744141 0.07421875 C79.75417681 0.1056581 90.88077403 0.11621507 102.00755066 0.11474764 C113.87713635 0.11339393 125.74666915 0.12729277 137.61623883 0.14564085 C141.02563445 0.1498926 144.43502146 0.15132173 147.84441948 0.15211868 C153.21333192 0.15413621 158.58212956 0.16641606 163.95100403 0.18645096 C165.91531737 0.19226427 167.87964393 0.19475918 169.84396553 0.19359589 C198.26174006 0.18314014 215.04687854 8.47318351 236.27319336 26.95556641 C246.01239753 35.40357799 255.97350658 43.58341467 265.99829102 51.68896484 C269.43820687 54.47141419 272.87094661 57.26243762 276.29614258 60.06298828 C277.72529042 61.23083371 279.15815243 62.39413254 280.59204102 63.55615234 C290.70256181 72.01437013 296.81667819 82.38132276 299.03735352 95.48583984 C299.13494404 97.34879502 299.18470517 99.21460057 299.19798279 101.08006287 C299.20802841 102.19420059 299.21807404 103.30833832 299.22842407 104.45623779 C299.23425507 105.66926575 299.24008606 106.8822937 299.24609375 108.13208008 C299.25587753 109.41730057 299.26566132 110.70252106 299.27574158 112.02668762 C299.30703775 116.28257257 299.32739082 120.53847647 299.34594727 124.79443359 C299.34924459 125.52080686 299.35254191 126.24718012 299.35593915 126.9955647 C299.38672811 133.85883112 299.41340913 140.72210227 299.43035793 147.58541775 C299.45221566 156.33102251 299.49409248 165.07600966 299.56379551 173.82136768 C299.61125598 179.98808682 299.63532101 186.1546407 299.64255482 192.3215366 C299.64747995 195.99538763 299.66225532 199.66854149 299.70229912 203.3421917 C299.746523 207.45351462 299.74222035 211.56349503 299.734375 215.67504883 C299.75437561 216.8698587 299.77437622 218.06466858 299.79498291 219.29568481 C299.70022536 230.43528411 296.33007148 240.37062622 288.66235352 248.61083984 C280.21413929 256.23828954 271.21950456 258.6272628 260.04125977 258.84912109 C250.98852982 257.7543176 244.01091677 253.29808929 236.47485352 248.42333984 C234.35246416 247.07306925 232.23006831 245.72280886 230.10766602 244.37255859 C229.07673828 243.71175293 228.04581055 243.05094727 226.98364258 242.37011719 C222.95763601 239.79531451 218.90596118 237.26284198 214.84985352 234.73583984 C213.90807251 234.1459729 213.90807251 234.1459729 212.94726562 233.54418945 C209.66463671 231.48908489 206.36548713 229.46642407 203.03735352 227.48583984 C203.03477539 228.22447266 203.03219727 228.96310547 203.02954102 229.72412109 C202.71370765 238.00948306 200.59963137 243.6088769 196.03735352 250.48583984 C195.65579102 251.08267578 195.27422852 251.67951172 194.88110352 252.29443359 C190.51906498 258.29223658 181.72465096 263.31401548 174.53735352 265.11083984 C155.63818744 267.13575049 144.30091769 259.50584073 129.03735352 249.48583984 C126.89570684 248.09570615 124.75149649 246.70960372 122.60693359 245.32397461 C121.23072319 244.43415401 119.85555316 243.54272224 118.48144531 242.6496582 C112.12204636 238.51974231 105.70848906 234.47720297 99.27954102 230.45654297 C98.52286133 229.98152344 97.76618164 229.50650391 96.98657227 229.01708984 C96.31972412 228.60007812 95.65287598 228.18306641 94.96582031 227.75341797 C92.92277569 226.41052803 90.98721569 224.95982819 89.03735352 223.48583984 C89.03680875 224.1696104 89.03626398 224.85338095 89.03570271 225.55787182 C89.02069374 242.24464731 88.97808147 258.93110546 88.90526295 275.61772442 C88.87070358 283.68748138 88.84526937 291.75706913 88.84179688 299.8269043 C88.83874431 306.86582255 88.81808152 313.90443874 88.77682894 320.94324046 C88.75561349 324.6655826 88.74283859 328.38749657 88.75119972 332.10989952 C88.76023371 336.27949356 88.72992652 340.44795925 88.69677734 344.61743164 C88.70540298 345.83304276 88.71402863 347.04865387 88.72291565 348.30110168 C88.56638961 360.11448721 85.05167996 370.33361172 77.26782227 379.32958984 C69.77744782 386.57072241 60.13207124 390.41029186 49.78735352 390.98583984 C42.71731931 390.77643121 36.51242966 388.13606942 30.03735352 385.48583984 C29.10665039 385.11330078 28.17594727 384.74076172 27.21704102 384.35693359 C22.48524311 382.42242363 17.79952316 380.38306914 13.11157227 378.34521484 C11.29544557 377.55811117 9.47903191 376.77166933 7.66235352 375.98583984 C6.7481665 375.58985596 5.83397949 375.19387207 4.89208984 374.78588867 C-0.13589988 372.62872324 -5.1509193 370.66207225 -10.33764648 368.92333984 C-26.29225376 363.37143969 -40.24853673 355.07177386 -47.96264648 339.48583984 C-51.9469261 330.78691102 -53.69394663 323.40901564 -53.59083557 313.8664093 C-53.59792996 312.6658766 -53.60502435 311.46534389 -53.61233371 310.2284314 C-53.62676629 306.93611488 -53.61913305 303.64475364 -53.60161078 300.35248125 C-53.58813649 296.78666686 -53.60370937 293.22095567 -53.61543274 289.65515137 C-53.63373765 282.68643823 -53.62534591 275.71800692 -53.60734452 268.74930278 C-53.59327808 263.08367937 -53.58943437 257.4181321 -53.59278679 251.7524929 C-53.59326423 250.94396066 -53.59374167 250.13542841 -53.59423358 249.30239519 C-53.59525998 247.65955143 -53.59631534 246.01670768 -53.59739935 244.37386396 C-53.60595151 229.87296578 -53.58933793 215.37220309 -53.55957031 200.87133789 C-53.53072046 186.81724359 -53.52365888 172.76334432 -53.5390625 158.70922852 C-53.55583971 143.38101111 -53.55984463 128.05288613 -53.54235214 112.7246663 C-53.54050786 111.08902404 -53.53867313 109.45338177 -53.53684807 107.81773949 C-53.53593598 107.01309714 -53.53502389 106.20845479 -53.53408416 105.37942934 C-53.52848944 99.72233611 -53.53177584 94.06528817 -53.53839302 88.4081974 C-53.54614006 81.51186595 -53.53932396 74.61572616 -53.51421798 67.71943323 C-53.50175641 64.20417088 -53.49553552 60.68920645 -53.50675964 57.17393303 C-53.51546479 53.35708322 -53.49947808 49.54109717 -53.47731018 45.72431946 C-53.48555095 44.62226758 -53.49379171 43.5202157 -53.5022822 42.38476831 C-53.37510047 30.49823245 -48.83601834 21.30876408 -40.96264648 12.48583984 C-37.5079423 9.40294238 -33.99332034 6.76515038 -29.96264648 4.48583984 C-29.37241668 4.14620398 -28.78218687 3.80656811 -28.17407131 3.45664024 C-19.25030757 -0.88633713 -9.67970981 -0.05970279 0 0 Z " fill="#444C54" transform="translate(425.962646484375,239.51416015625)"/>
<path d="M0 0 C1.25853848 -0.00256327 1.25853848 -0.00256327 2.54250199 -0.00517833 C5.34003282 -0.00845961 8.13732116 0.00250795 10.93482971 0.01345825 C12.94568883 0.01402266 14.95654835 0.01370523 16.96740723 0.01257324 C22.41726834 0.01199989 27.86704126 0.02375151 33.3168819 0.03772116 C39.01570357 0.05023131 44.71452731 0.05139924 50.4133606 0.05377197 C61.2008506 0.05998589 71.98830002 0.07639556 82.77577215 0.09647095 C95.05864554 0.11883265 107.34152088 0.12982407 119.62440956 0.13986182 C144.88749202 0.16076183 170.15053847 0.19593614 195.41358948 0.24050903 C195.41358948 0.90050903 195.41358948 1.56050903 195.41358948 2.24050903 C196.48608948 2.28175903 197.55858948 2.32300903 198.66358948 2.36550903 C213.76380394 4.37887096 226.73395388 17.52649478 237.42530823 27.46316528 C239.4917791 29.39444448 239.4917791 29.39444448 242.41358948 31.24050903 C242.41358948 31.90050903 242.41358948 32.56050903 242.41358948 33.24050903 C243.07358948 33.24050903 243.73358948 33.24050903 244.41358948 33.24050903 C244.41358948 33.90050903 244.41358948 34.56050903 244.41358948 35.24050903 C245.01171448 35.52925903 245.60983948 35.81800903 246.22608948 36.11550903 C248.41358948 37.24050903 248.41358948 37.24050903 251.41358948 39.24050903 C251.41358948 39.90050903 251.41358948 40.56050903 251.41358948 41.24050903 C252.01171448 41.34363403 252.60983948 41.44675903 253.22608948 41.55300903 C255.72617233 42.33874936 256.7889403 43.20969756 258.41358948 45.24050903 C258.41358948 45.90050903 258.41358948 46.56050903 258.41358948 47.24050903 C259.15608948 47.50863403 259.89858948 47.77675903 260.66358948 48.05300903 C263.30420896 49.19327654 265.26911792 50.33431209 267.41358948 52.24050903 C267.41358948 52.90050903 267.41358948 53.56050903 267.41358948 54.24050903 C268.40358948 54.24050903 269.39358948 54.24050903 270.41358948 54.24050903 C270.41358948 54.90050903 270.41358948 55.56050903 270.41358948 56.24050903 C271.07358948 56.24050903 271.73358948 56.24050903 272.41358948 56.24050903 C272.41358948 56.90050903 272.41358948 57.56050903 272.41358948 58.24050903 C272.98851135 58.50347778 273.56343323 58.76644653 274.15577698 59.03738403 C279.00037333 61.61893365 283.44556818 65.17246353 285.78858948 70.17800903 C286.09796448 71.69394653 286.09796448 71.69394653 286.41358948 73.24050903 C286.6842926 74.20150513 286.6842926 74.20150513 286.96046448 75.18191528 C288.11548178 79.29471338 288.62894035 82.93349154 288.41358948 87.24050903 C284.53858948 85.49050903 284.53858948 85.49050903 283.41358948 83.24050903 C282.42358948 82.91050903 281.43358948 82.58050903 280.41358948 82.24050903 C280.41358948 81.25050903 280.41358948 80.26050903 280.41358948 79.24050903 C279.42358948 79.24050903 278.43358948 79.24050903 277.41358948 79.24050903 C277.41358948 78.58050903 277.41358948 77.92050903 277.41358948 77.24050903 C276.83608948 76.95175903 276.25858948 76.66300903 275.66358948 76.36550903 C272.53858948 74.80300903 272.53858948 74.80300903 269.41358948 73.24050903 C269.41358948 72.58050903 269.41358948 71.92050903 269.41358948 71.24050903 C267.92858948 71.73550903 267.92858948 71.73550903 266.41358948 72.24050903 C266.08358948 71.25050903 265.75358948 70.26050903 265.41358948 69.24050903 C262.11358948 68.58050903 258.81358948 67.92050903 255.41358948 67.24050903 C255.41358948 66.58050903 255.41358948 65.92050903 255.41358948 65.24050903 C249.47358948 65.73550903 249.47358948 65.73550903 243.41358948 66.24050903 C243.41358948 65.58050903 243.41358948 64.92050903 243.41358948 64.24050903 C227.13113653 64.34821302 210.84872828 64.46105302 194.56635284 64.57984829 C187.00454122 64.63490175 179.4427249 64.68833473 171.88087463 64.73782349 C165.28262034 64.78101021 158.68439687 64.82736917 152.0861907 64.87738758 C148.59918843 64.90371437 145.11219117 64.92855456 141.62515259 64.94958305 C120.99908758 65.05985626 120.99908758 65.05985626 100.41358948 66.24050903 C100.41358948 66.90050903 100.41358948 67.56050903 100.41358948 68.24050903 C98.76358948 68.57050903 97.11358948 68.90050903 95.41358948 69.24050903 C95.41358948 69.90050903 95.41358948 70.56050903 95.41358948 71.24050903 C94.09358948 71.57050903 92.77358948 71.90050903 91.41358948 72.24050903 C91.41358948 72.90050903 91.41358948 73.56050903 91.41358948 74.24050903 C90.42358948 74.90050903 89.43358948 75.56050903 88.41358948 76.24050903 C87.91858948 77.72550903 87.91858948 77.72550903 87.41358948 79.24050903 C86.42358948 79.24050903 85.43358948 79.24050903 84.41358948 79.24050903 C84.41358948 80.56050903 84.41358948 81.88050903 84.41358948 83.24050903 C83.75358948 83.24050903 83.09358948 83.24050903 82.41358948 83.24050903 C82.12483948 84.12738403 81.83608948 85.01425903 81.53858948 85.92800903 C80.41358948 89.24050903 80.41358948 89.24050903 79.36068153 91.32863903 C77.97279503 95.59574806 78.12592332 99.68243112 78.13511658 104.14292908 C78.12932418 105.14767153 78.12353177 106.15241398 78.11756384 107.18760318 C78.10054418 110.55789132 78.09768561 113.92804269 78.09474182 117.29837036 C78.08544502 119.7128737 78.07527672 122.12737383 78.06430054 124.54187012 C78.04262473 129.74196203 78.02701877 134.94203463 78.01693344 140.14216042 C78.00234131 147.66064366 77.976803 155.17905845 77.94860215 162.6975015 C77.90314387 174.89598263 77.86652508 187.09447361 77.83546448 199.29299927 C77.80527499 211.14197521 77.77092289 222.99092704 77.73097229 234.83987427 C77.72851074 235.57037457 77.72604919 236.30087487 77.72351305 237.05351154 C77.71113837 240.71825606 77.69868185 244.38300029 77.68618464 248.04774439 C77.58263127 278.44529959 77.49357053 308.84288214 77.41358948 339.24050903 C76.75358948 339.24050903 76.09358948 339.24050903 75.41358948 339.24050903 C75.33108948 340.29238403 75.24858948 341.34425903 75.16358948 342.42800903 C74.35706726 346.52783031 73.3363727 348.31772581 70.41358948 351.24050903 C69.75358948 351.24050903 69.09358948 351.24050903 68.41358948 351.24050903 C68.08358948 352.56050903 67.75358948 353.88050903 67.41358948 355.24050903 C60.54693265 357.31036253 52.34424445 356.78065458 45.41358948 355.24050903 C45.41358948 353.92050903 45.41358948 352.60050903 45.41358948 351.24050903 C44.29983948 351.26113403 43.18608948 351.28175903 42.03858948 351.30300903 C38.41358948 351.24050903 38.41358948 351.24050903 36.41358948 350.24050903 C36.41358948 349.58050903 36.41358948 348.92050903 36.41358948 348.24050903 C33.77358948 347.91050903 31.13358948 347.58050903 28.41358948 347.24050903 C28.41358948 346.58050903 28.41358948 345.92050903 28.41358948 345.24050903 C25.77358948 344.91050903 23.13358948 344.58050903 20.41358948 344.24050903 C20.41358948 343.58050903 20.41358948 342.92050903 20.41358948 342.24050903 C18.10358948 341.91050903 15.79358948 341.58050903 13.41358948 341.24050903 C13.41358948 340.58050903 13.41358948 339.92050903 13.41358948 339.24050903 C11.43358948 339.24050903 9.45358948 339.24050903 7.41358948 339.24050903 C7.41358948 338.58050903 7.41358948 337.92050903 7.41358948 337.24050903 C5.43358948 336.91050903 3.45358948 336.58050903 1.41358948 336.24050903 C1.41358948 335.58050903 1.41358948 334.92050903 1.41358948 334.24050903 C-1.55641052 333.91050903 -4.52641052 333.58050903 -7.58641052 333.24050903 C-7.58641052 332.58050903 -7.58641052 331.92050903 -7.58641052 331.24050903 C-9.56641052 330.91050903 -11.54641052 330.58050903 -13.58641052 330.24050903 C-13.58641052 329.58050903 -13.58641052 328.92050903 -13.58641052 328.24050903 C-14.90641052 327.91050903 -16.22641052 327.58050903 -17.58641052 327.24050903 C-17.58641052 326.58050903 -17.58641052 325.92050903 -17.58641052 325.24050903 C-18.24641052 325.24050903 -18.90641052 325.24050903 -19.58641052 325.24050903 C-24.58641052 319.76431856 -24.58641052 319.76431856 -24.58641052 317.24050903 C-25.24641052 317.24050903 -25.90641052 317.24050903 -26.58641052 317.24050903 C-26.58641052 316.25050903 -26.58641052 315.26050903 -26.58641052 314.24050903 C-27.57641052 314.24050903 -28.56641052 314.24050903 -29.58641052 314.24050903 C-29.71471459 282.54626305 -29.84220216 250.8520139 -29.96859279 219.15776023 C-29.98360816 215.39261853 -29.99863029 211.62747686 -30.01365662 207.86233521 C-30.01664723 207.11294916 -30.01963785 206.36356311 -30.02271909 205.5914684 C-30.07078456 193.55127532 -30.11939467 181.51108449 -30.16821593 169.47089445 C-30.21851957 157.06204225 -30.26821507 144.65318772 -30.31737757 132.24433094 C-30.34222809 125.97572005 -30.36716734 119.70710964 -30.3928729 113.43850219 C-30.40116595 111.41561223 -30.40940384 109.39272206 -30.41763735 107.36983186 C-30.42843857 104.73072564 -30.43940836 102.0916201 -30.45055342 99.4525153 C-30.47646371 93.17927669 -30.49807499 86.9060872 -30.50928497 80.63280392 C-30.52897907 70.79923678 -30.55056029 60.96916602 -30.75289774 51.13737839 C-30.82651911 47.49604937 -30.87949851 43.85456214 -30.93045712 40.2128545 C-30.95955102 38.58586262 -30.99942053 36.95901688 -31.05162144 35.33260238 C-31.41386343 24.04414525 -29.65485439 16.28662228 -22.27781677 7.48660278 C-21.57527771 6.88976685 -20.87273865 6.29293091 -20.14891052 5.67800903 C-19.44894958 5.05796997 -18.74898865 4.43793091 -18.02781677 3.79910278 C-12.39677887 0.20424819 -6.45941522 -0.04865823 0 0 Z " fill="#179CD1" transform="translate(419.58641052246094,255.75949096679688)"/>
<path d="M0 0 C0.82003006 -0.00029205 1.64006012 -0.00058411 2.48493958 -0.00088501 C5.1849744 0.00050403 7.88473041 0.01604512 10.5847168 0.03173828 C12.46086985 0.03546993 14.33702485 0.03831618 16.21318054 0.04031372 C21.14349783 0.04793824 26.07369669 0.06757661 31.00396729 0.08972168 C36.03802895 0.11020554 41.07210981 0.11932087 46.10620117 0.12939453 C55.97799791 0.15082359 65.84970686 0.18494531 75.72143555 0.22705078 C75.9157995 83.71540297 75.9157995 83.71540297 75.34643555 115.16455078 C75.33105743 116.18417908 75.31567932 117.20380737 75.29983521 118.2543335 C75.25550319 121.06718134 75.1981662 123.87940296 75.13549805 126.69189453 C75.1239418 127.48479385 75.11238556 128.27769318 75.10047913 129.09461975 C74.9587294 134.29947584 74.04840018 138.57312152 71.72143555 143.22705078 C71.06143555 143.22705078 70.40143555 143.22705078 69.72143555 143.22705078 C69.65956055 143.84580078 69.59768555 144.46455078 69.53393555 145.10205078 C68.72143555 147.22705078 68.72143555 147.22705078 66.15893555 148.47705078 C65.35456055 148.72455078 64.55018555 148.97205078 63.72143555 149.22705078 C63.72143555 149.88705078 63.72143555 150.54705078 63.72143555 151.22705078 C57.70328327 152.97881342 51.13248706 153.25398013 45.34643555 150.78955078 C44.48018555 150.27392578 43.61393555 149.75830078 42.72143555 149.22705078 C39.9857097 148.52797665 39.9857097 148.52797665 37.72143555 148.22705078 C37.72143555 146.90705078 37.72143555 145.58705078 37.72143555 144.22705078 C35.74143555 143.89705078 33.76143555 143.56705078 31.72143555 143.22705078 C31.72143555 142.56705078 31.72143555 141.90705078 31.72143555 141.22705078 C30.91706055 141.07236328 30.91706055 141.07236328 30.09643555 140.91455078 C27.09641511 140.04612381 24.48348205 138.67084782 21.72143555 137.22705078 C21.72143555 136.56705078 21.72143555 135.90705078 21.72143555 135.22705078 C20.40143555 135.22705078 19.08143555 135.22705078 17.72143555 135.22705078 C17.39143555 134.56705078 17.06143555 133.90705078 16.72143555 133.22705078 C14.70473727 132.09354544 14.70473727 132.09354544 12.72143555 131.22705078 C12.72143555 130.56705078 12.72143555 129.90705078 12.72143555 129.22705078 C11.40143555 129.22705078 10.08143555 129.22705078 8.72143555 129.22705078 C8.72143555 128.56705078 8.72143555 127.90705078 8.72143555 127.22705078 C7.97893555 127.14455078 7.23643555 127.06205078 6.47143555 126.97705078 C3.16107897 126.07422626 2.07808905 124.65734971 -0.27856445 122.22705078 C-2.91079407 120.97268892 -2.91079407 120.97268892 -5.27856445 120.22705078 C-5.27856445 119.56705078 -5.27856445 118.90705078 -5.27856445 118.22705078 C-6.26856445 118.22705078 -7.25856445 118.22705078 -8.27856445 118.22705078 C-8.27856445 117.56705078 -8.27856445 116.90705078 -8.27856445 116.22705078 C-9.08293945 116.04142578 -9.08293945 116.04142578 -9.90356445 115.85205078 C-10.68731445 115.64580078 -11.47106445 115.43955078 -12.27856445 115.22705078 C-13.24793945 114.97955078 -14.21731445 114.73205078 -15.21606445 114.47705078 C-18.81287742 113.00896386 -20.70393226 111.09592665 -23.27856445 108.22705078 C-23.60856445 107.89705078 -23.93856445 107.56705078 -24.27856445 107.22705078 C-24.40573611 104.44999243 -24.46782218 101.69727965 -24.48730469 98.91870117 C-24.49708847 98.04704315 -24.50687225 97.17538513 -24.51695251 96.27731323 C-24.54699783 93.37646015 -24.56832547 90.47565383 -24.5871582 87.57470703 C-24.59373003 86.58414244 -24.60030186 85.59357784 -24.60707283 84.57299614 C-24.63971766 79.32252303 -24.66414738 74.07207055 -24.68359375 68.8215332 C-24.70135994 64.48268824 -24.73609735 60.14449896 -24.78613281 55.8059082 C-24.84650078 50.56566331 -24.87709397 45.32602338 -24.88676643 40.08544731 C-24.89530038 38.09243175 -24.91406734 36.09943142 -24.94351006 34.10661507 C-25.22599501 13.88597637 -25.22599501 13.88597637 -18.27856445 6.22705078 C-12.7542137 0.83744029 -7.51985297 -0.07045329 0 0 Z " fill="#179CD1" transform="translate(538.278564453125,335.77294921875)"/>
<path d="M0 0 C47.8733234 0 47.8733234 0 67 18 C70 21.53638254 70 21.53638254 70 24 C70.61875 24.226875 71.2375 24.45375 71.875 24.6875 C74.61410209 26.37929835 75.05024472 27.99244161 76 31 C76.66 31 77.32 31 78 31 C79.2323483 35.78263429 79.12953832 40.44433041 79.10107422 45.3449707 C79.0987101 46.74593491 79.0987101 46.74593491 79.09629822 48.17520142 C79.08881804 51.25878951 79.07280745 54.34223812 79.0546875 57.42578125 C79.04612417 59.00916322 79.04612417 59.00916322 79.03738785 60.6245327 C79.00588004 66.20995617 78.96696177 71.7952779 78.92285156 77.38061523 C78.87908329 83.14056036 78.86327839 88.90023278 78.85362053 94.66032124 C78.84073722 99.09839836 78.8060198 103.53611711 78.76550674 107.97402 C78.75004481 110.09696246 78.74292073 112.21998311 78.74441147 114.34298134 C78.74459147 117.3183019 78.71358829 120.29180488 78.67529297 123.2668457 C78.68234756 124.13724991 78.68940216 125.00765411 78.69667053 125.9044342 C78.57804894 131.7172136 77.32732509 136.82914774 73 141 C71.68 141 70.36 141 69 141 C68.67 141.99 68.34 142.98 68 144 C66.35 144 64.7 144 63 144 C63 144.66 63 145.32 63 146 C61.02 146 59.04 146 57 146 C57 145.34 57 144.68 57 144 C54.69 143.67 52.38 143.34 50 143 C50 142.34 50 141.68 50 141 C48.35 140.67 46.7 140.34 45 140 C45 139.34 45 138.68 45 138 C43.88625 137.814375 43.88625 137.814375 42.75 137.625 C40.19858515 137.04513299 38.2732427 136.26291261 36 135 C36 134.34 36 133.68 36 133 C35.01 133 34.02 133 33 133 C33 132.34 33 131.68 33 131 C31.35 130.67 29.7 130.34 28 130 C27.67 129.01 27.34 128.02 27 127 C25.02 126.67 23.04 126.34 21 126 C20.67 125.01 20.34 124.02 20 123 C18.68 123 17.36 123 16 123 C16 122.34 16 121.68 16 121 C13.34771188 119.92474806 10.71631546 118.90543849 8 118 C8 117.34 8 116.68 8 116 C6.68 115.67 5.36 115.34 4 115 C4 114.34 4 113.68 4 113 C2.68 112.67 1.36 112.34 0 112 C0 75.04 0 38.08 0 0 Z " fill="#179CD1" transform="translate(630,336)"/>
<path d="M0 0 C8.58 0 17.16 0 26 0 C31.7178003 10.4664819 37.01754682 21.0717359 42.0625 31.875 C42.35748383 32.50176636 42.65246765 33.12853271 42.95639038 33.77429199 C43.80150576 35.57311613 44.63726497 37.37632684 45.47265625 39.1796875 C45.96000244 40.22882324 46.44734863 41.27795898 46.94946289 42.35888672 C48 45 48 45 48 48 C48.66 48 49.32 48 50 48 C50.36480469 46.78957031 50.72960937 45.57914063 51.10546875 44.33203125 C53.26811494 37.85169424 56.30994836 31.81188739 59.3125 25.6875 C60.1468457 23.96756836 60.1468457 23.96756836 60.99804688 22.21289062 C64.61128089 14.78031261 68.30365505 7.3926899 72 0 C80.91 0 89.82 0 99 0 C99.02254957 12.10842276 99.04091424 24.21683169 99.05181217 36.32527065 C99.05704136 41.94707962 99.06413966 47.56887353 99.07543945 53.19067383 C99.08626706 58.61118277 99.09227656 64.0316772 99.09487724 69.45219612 C99.09673172 71.52514945 99.10035277 73.59810194 99.10573006 75.67104912 C99.1129388 78.56383893 99.11399101 81.45656796 99.11352539 84.34936523 C99.11712067 85.21538864 99.12071594 86.08141205 99.12442017 86.97367859 C99.11405216 92.88594784 99.11405216 92.88594784 98 94 C90.74 94 83.48 94 76 94 C75.67 76.18 75.34 58.36 75 40 C71.31989724 47.68646261 71.31989724 47.68646261 67.64208984 55.37402344 C64.16826256 62.62034892 60.61713195 69.82415546 57 77 C55.97414795 77.07669922 54.9482959 77.15339844 53.89135742 77.23242188 C52.119823 77.36487305 52.119823 77.36487305 50.3125 77.5 C46.55078125 77.78125 46.55078125 77.78125 43 77 C40.6905674 74.69870977 39.43270286 71.90209398 38 69 C37.16021606 67.3907666 37.16021606 67.3907666 36.3034668 65.74902344 C34.71647625 62.69651901 33.17167745 59.62470747 31.64135742 56.54345703 C30.67772116 54.60533219 29.70546825 52.67169588 28.73242188 50.73828125 C28.11667343 49.50546496 27.5014204 48.27240108 26.88671875 47.0390625 C26.33201904 45.92740723 25.77731934 44.81575195 25.20581055 43.67041016 C24 41 24 41 24 39 C23.34 39 22.68 39 22 39 C22 56.82 22 74.64 22 93 C14.74 93 7.48 93 0 93 C0 62.31 0 31.62 0 0 Z " fill="#454B53" transform="translate(361,707)"/>
<path d="M0 0 C7.59 0 15.18 0 23 0 C23 10.89 23 21.78 23 33 C25.97 30.525 25.97 30.525 29 28 C35.99447415 24.21704094 47.433184 24.94129384 54.9375 27 C63.15841476 30.37953475 68.45555846 36.71871767 72.125 44.60546875 C75.73061552 54.47262194 75.70166136 69.04320739 72.0390625 78.8671875 C67.97681136 87.20549247 62.66462784 92.89024811 55 98 C47.51883808 100.05964493 36.30703355 100.68266595 29.25 97.1875 C23.92 93.6 23.92 93.6 22 92 C22 93.65 22 95.3 22 97 C14.74 97 7.48 97 0 97 C0 64.99 0 32.98 0 0 Z " fill="#444B53" transform="translate(738,703)"/>
<path d="M0 0 C12.0965625 -0.0928125 12.0965625 -0.0928125 24.4375 -0.1875 C26.96591553 -0.21481201 29.49433105 -0.24212402 32.09936523 -0.27026367 C34.12743656 -0.27903431 36.15551322 -0.28667688 38.18359375 -0.29296875 C39.21713989 -0.30831665 40.25068604 -0.32366455 41.31555176 -0.33947754 C51.75358237 -0.34320941 61.73444874 2.55593213 69.7578125 9.52734375 C76.02700828 16.22183673 78.22977431 23.4949712 78.375 32.5625 C78.01882095 43.30183806 76.75305602 50.14337262 69 58 C59.05211483 66.4557024 48.54243541 67.44988914 35.875 67.1875 C31.62625 67.125625 27.3775 67.06375 23 67 C23 75.58 23 84.16 23 93 C15.41 93 7.82 93 0 93 C0 62.31 0 31.62 0 0 Z " fill="#444B53" transform="translate(269,707)"/>
<path d="M0 0 C0.70342529 0.16580566 1.40685059 0.33161133 2.1315918 0.50244141 C3.77572843 0.92610438 5.39273577 1.45284622 7 2 C8.20029908 4.40059817 8.11459743 5.89360649 8.09765625 8.5703125 C8.09282227 9.91416016 8.09282227 9.91416016 8.08789062 11.28515625 C8.07532227 12.69087891 8.07532227 12.69087891 8.0625 14.125 C8.05798828 15.06988281 8.05347656 16.01476562 8.04882812 16.98828125 C8.03702357 19.32558387 8.02055759 21.66276061 8 24 C5.65625 23.28385417 3.3125 22.56770833 0.96875 21.8515625 C-9.0360278 18.98177097 -21.76709956 16.05267919 -31.75 20.625 C-37.15211986 24.05721933 -40.62988313 29.11465361 -43 35 C-43.45285799 38.46620345 -43.46454865 41.88326579 -43.4375 45.375 C-43.45748047 46.2825 -43.47746094 47.19 -43.49804688 48.125 C-43.49252447 55.79010139 -41.56030686 60.96805767 -36.625 66.8125 C-29.59452324 72.67123063 -22.81202314 73.49505748 -14 73 C-7.68368665 72.21933206 -1.75158836 70.7682113 4.22265625 68.5859375 C6 68 6 68 8 68 C8 74.93 8 81.86 8 89 C-6.41570932 95.17816114 -24.77330658 97.10256329 -40 92.375 C-52.0734734 87.2594246 -60.39336319 79.20277391 -65.84350586 67.265625 C-68.54355514 60.21191536 -68.65673472 53.10828802 -68.6875 45.625 C-68.69450928 44.43680664 -68.70151855 43.24861328 -68.70874023 42.02441406 C-68.43471385 28.76339464 -63.15650025 17.57270481 -54 8 C-38.81694946 -4.52210353 -18.38143428 -4.39247865 0 0 Z " fill="#454C54" transform="translate(586,708)"/>
<path d="M0 0 C7.92 0 15.84 0 24 0 C24 23.43 24 46.86 24 71 C17.07 71 10.14 71 3 71 C2 70 2 70 1.9375 66.4375 C1.958125 65.303125 1.97875 64.16875 2 63 C1.50371094 63.39832031 1.00742187 63.79664063 0.49609375 64.20703125 C-0.18324219 64.73683594 -0.86257813 65.26664063 -1.5625 65.8125 C-2.22378906 66.33457031 -2.88507812 66.85664062 -3.56640625 67.39453125 C-9.16006567 71.08473032 -14.28271075 72.5379316 -20.9375 72.4375 C-21.64044189 72.42992676 -22.34338379 72.42235352 -23.06762695 72.41455078 C-30.4379803 72.18024555 -34.36384087 70.3365956 -39.75 65.5625 C-48.32704502 53.69710803 -46.4647513 37.97919296 -46.25 24.1875 C-46.22990061 21.9342607 -46.21165594 19.68100405 -46.1953125 17.42773438 C-46.15502786 11.95103709 -46.0766878 6.47678704 -46 1 C-38.41 1 -30.82 1 -23 1 C-22.97421875 4.19042969 -22.9484375 7.38085938 -22.921875 10.66796875 C-22.88344758 13.76254042 -22.83828949 16.85694586 -22.79248047 19.95141602 C-22.76427873 22.09977261 -22.74306025 24.24823281 -22.72900391 26.39672852 C-22.70756377 29.48768119 -22.66090689 32.57738922 -22.609375 35.66796875 C-22.60814636 36.62648239 -22.60691772 37.58499603 -22.60565186 38.57255554 C-22.51109305 42.89108704 -22.40472206 45.34772399 -20.08691406 49.08325195 C-17.38972574 51.56051277 -16.44597297 51.95711798 -12.75 52.3125 C-7.53504918 51.87792077 -4.63177212 49.63177212 -1 46 C-0.67002553 43.94092803 -0.67002553 43.94092803 -0.68115234 41.55029297 C-0.66128265 40.62948944 -0.64141296 39.70868591 -0.62094116 38.75997925 C-0.60938995 37.76410797 -0.59783875 36.76823669 -0.5859375 35.7421875 C-0.56657135 34.72399933 -0.5472052 33.70581116 -0.5272522 32.6567688 C-0.46734645 29.39626511 -0.42102701 26.13572633 -0.375 22.875 C-0.33683035 20.66795313 -0.29777923 18.46092131 -0.2578125 16.25390625 C-0.15997247 10.83601467 -0.0804906 5.4182886 0 0 Z " fill="#474E56" transform="translate(697,730)"/>
<path d="M0 0 C1.25853848 -0.00256327 1.25853848 -0.00256327 2.54250199 -0.00517833 C5.34003282 -0.00845961 8.13732116 0.00250795 10.93482971 0.01345825 C12.94568883 0.01402266 14.95654835 0.01370523 16.96740723 0.01257324 C22.41726834 0.01199989 27.86704126 0.02375151 33.3168819 0.03772116 C39.01570357 0.05023131 44.71452731 0.05139924 50.4133606 0.05377197 C61.2008506 0.05998589 71.98830002 0.07639556 82.77577215 0.09647095 C95.05864554 0.11883265 107.34152088 0.12982407 119.62440956 0.13986182 C144.88749202 0.16076183 170.15053847 0.19593614 195.41358948 0.24050903 C195.41358948 0.90050903 195.41358948 1.56050903 195.41358948 2.24050903 C196.48608948 2.28175903 197.55858948 2.32300903 198.66358948 2.36550903 C210.5109316 3.94515465 223.81829989 13.36990704 231.31593323 22.57644653 C231.67815979 23.12558716 232.04038635 23.67472778 232.41358948 24.24050903 C227.31054125 22.86130681 223.09750449 20.44870717 218.58546448 17.77566528 C207.77731157 12.54462576 197.38163343 12.80019136 185.6186676 12.82058716 C183.61373423 12.81323945 181.60880507 12.80465118 179.60388184 12.79492188 C174.18038409 12.77277492 168.75703857 12.76977165 163.33350182 12.77166939 C158.79820495 12.77178937 154.26294002 12.76321435 149.72765207 12.75489187 C139.02610026 12.73568359 128.32462646 12.73276513 117.62306213 12.73953247 C106.59731577 12.74617658 95.57190365 12.7232879 84.54622507 12.68621874 C75.06397278 12.65550006 65.58182792 12.64416392 56.09952688 12.64805555 C50.44304923 12.65012021 44.78683196 12.64468675 39.13040161 12.62016296 C33.81143036 12.59786177 28.49300238 12.599802 23.1740284 12.62009048 C21.22702167 12.62349415 19.27997811 12.61843931 17.33302116 12.6041069 C4.61132029 12.51694868 -4.79951507 13.25372886 -14.58641052 22.30300903 C-15.30828552 22.9539856 -16.03016052 23.60496216 -16.77391052 24.27566528 C-18.53678716 26.18671474 -19.56966783 27.86281388 -20.58641052 30.24050903 C-21.24641052 30.24050903 -21.90641052 30.24050903 -22.58641052 30.24050903 C-22.72176208 30.8296106 -22.85711365 31.41871216 -22.99656677 32.02566528 C-23.58641052 34.24050903 -23.58641052 34.24050903 -25.02391052 37.67800903 C-27.20737803 43.31863344 -27.81336319 49.27440259 -28.58641052 55.24050903 C-29.24641052 55.24050903 -29.90641052 55.24050903 -30.58641052 55.24050903 C-30.73636671 50.59994176 -30.84436517 45.96082801 -30.91600037 41.31838989 C-30.94590443 39.74424634 -30.98664484 38.17026547 -31.03904724 36.59671021 C-31.42331387 24.7484893 -30.16104932 16.89045887 -22.27781677 7.48660278 C-21.57527771 6.88976685 -20.87273865 6.29293091 -20.14891052 5.67800903 C-19.44894958 5.05796997 -18.74898865 4.43793091 -18.02781677 3.79910278 C-12.39677887 0.20424819 -6.45941522 -0.04865823 0 0 Z " fill="#F3F6F7" transform="translate(419.58641052246094,255.75949096679688)"/>
<path d="M0 0 C7.26 0 14.52 0 22 0 C22.02505615 2.25626221 22.0501123 4.51252441 22.07592773 6.8371582 C22.15933942 14.28513317 22.24803335 21.73303844 22.33933926 29.1809206 C22.39454451 33.69733042 22.44796073 38.21374675 22.49731445 42.73022461 C22.54499331 47.08744669 22.59733747 51.44458985 22.65294075 55.80171776 C22.67334833 57.4654971 22.69206406 59.12929807 22.70907402 60.79311562 C22.73315336 63.12037611 22.76320309 65.44748763 22.79467773 67.7746582 C22.80331093 68.81043755 22.80331093 68.81043755 22.81211853 69.86714172 C22.85810062 72.85086866 23.04808549 75.14425648 24 78 C26.64 78 29.28 78 32 78 C32 83.94 32 89.88 32 96 C24.28755162 98.57081613 16.01361656 99.8429789 8.375 96.25 C3.72759469 93.46741489 1.66336884 90.10043667 0 85 C-0.17748828 82.17490499 -0.2531781 79.45232272 -0.22705078 76.62963867 C-0.22734283 75.79985504 -0.22763489 74.97007141 -0.22793579 74.11514282 C-0.22654661 71.38264371 -0.21100483 68.65042001 -0.1953125 65.91796875 C-0.19158091 64.01939544 -0.18873462 62.12082019 -0.18673706 60.22224426 C-0.17911214 55.23274388 -0.15947342 50.2433605 -0.1373291 45.25390625 C-0.1168461 40.15952131 -0.10773009 35.0651174 -0.09765625 29.97070312 C-0.07622646 19.98040915 -0.04105359 9.99023263 0 0 Z " fill="#434A52" transform="translate(609,704)"/>
<path d="M0 0 C0.82003006 -0.00029205 1.64006012 -0.00058411 2.48493958 -0.00088501 C5.1849744 0.00050403 7.88473041 0.01604512 10.5847168 0.03173828 C12.46086985 0.03546993 14.33702485 0.03831618 16.21318054 0.04031372 C21.14349783 0.04793824 26.07369669 0.06757661 31.00396729 0.08972168 C36.03802895 0.11020554 41.07210981 0.11932087 46.10620117 0.12939453 C55.97799791 0.15082359 65.84970686 0.18494531 75.72143555 0.22705078 C75.72143555 4.18705078 75.72143555 8.14705078 75.72143555 12.22705078 C74.3353434 12.23251923 74.3353434 12.23251923 72.92124939 12.23809814 C64.19654253 12.27602481 55.47220769 12.33293072 46.74776363 12.41095352 C42.2628175 12.45039845 37.77806683 12.48260148 33.29296875 12.49804688 C28.96146236 12.51323326 24.63049343 12.54771356 20.29922676 12.5953598 C18.64994552 12.61015325 17.00058753 12.61809063 15.35124016 12.61893463 C13.03387584 12.6213123 10.71798728 12.64845308 8.40087891 12.68115234 C6.42564491 12.69447601 6.42564491 12.69447601 4.4105072 12.70806885 C-0.76122671 13.43563305 -4.43597219 15.41435859 -8.2043457 19.12158203 C-8.66196289 19.75451172 -9.11958008 20.38744141 -9.59106445 21.03955078 C-10.06157227 21.66474609 -10.53208008 22.28994141 -11.0168457 22.93408203 C-14.05924498 28.46314821 -14.57889738 34.16964798 -14.59741211 40.36547852 C-14.60745773 41.14678635 -14.61750336 41.92809418 -14.62785339 42.733078 C-14.65852045 45.29225998 -14.67567425 47.85133815 -14.69262695 50.41064453 C-14.71135189 52.19426863 -14.73092628 53.97788399 -14.75131226 55.76148987 C-14.80249944 60.43849523 -14.84219672 65.11552928 -14.87945557 69.79266357 C-14.91957957 74.57229631 -14.97063351 79.35181112 -15.02075195 84.13134766 C-15.11735229 93.49649904 -15.20180765 102.8617172 -15.27856445 112.22705078 C-21.93673616 109.822711 -21.93673616 109.822711 -24.27856445 107.22705078 C-24.6911155 104.26130739 -24.84573041 101.66158751 -24.82788086 98.69165039 C-24.83810272 97.81970032 -24.84832458 96.94775024 -24.8588562 96.04937744 C-24.88671241 93.15910555 -24.88472836 90.26978497 -24.88012695 87.37939453 C-24.88790165 85.36739243 -24.89657115 83.35539361 -24.90609741 81.34339905 C-24.92103861 77.11904284 -24.92043064 72.89502076 -24.90991211 68.6706543 C-24.89836517 63.27580184 -24.93206977 57.8823322 -24.97860146 52.48770809 C-25.00818693 48.32758171 -25.00980395 44.16778324 -25.003582 40.00757027 C-25.00460439 38.02018067 -25.01500401 36.03277173 -25.03520584 34.04548454 C-25.21471199 13.90313576 -25.21471199 13.90313576 -18.27856445 6.22705078 C-12.7542137 0.83744029 -7.51985297 -0.07045329 0 0 Z " fill="#F9FBFB" transform="translate(538.278564453125,335.77294921875)"/>
<path d="M0 0 C4.43227294 2.21613647 7.27247189 4.88588333 10 9 C10.91516765 15.06971485 11.27682259 22.59112787 8.375 28.1875 C5.3818898 31.7319726 2.78368352 34.5100717 -1.953125 35.34375 C-6.63806087 35.55832722 -10.06449647 34.68329786 -14 32 C-18.11614883 27.06212915 -18.70801965 23.2436326 -18.625 17.0625 C-18.62097168 16.26142822 -18.61694336 15.46035645 -18.61279297 14.63500977 C-18.45913166 10.15536851 -18.14037046 6.97021343 -15.125 3.4375 C-10.09447772 -0.48630737 -6.2736142 -0.69492342 0 0 Z " fill="#FAFBFB" transform="translate(779,748)"/>
<path d="M0 0 C3.485625 -0.12375 6.97125 -0.2475 10.5625 -0.375 C11.64732666 -0.42962402 12.73215332 -0.48424805 13.84985352 -0.54052734 C18.86834082 -0.62639236 22.19304289 -0.43632904 26.15234375 2.8359375 C29.54237227 6.12333072 30.17731098 9.18049723 30.3125 13.8125 C30.24897086 18.65483211 29.37600252 21.35747097 26 25 C20.617789 28.54889538 15.82634187 28.35866552 9.625 28.1875 C4.860625 28.0946875 4.860625 28.0946875 0 28 C0 18.76 0 9.52 0 0 Z " fill="#FBFBFB" transform="translate(293,727)"/>
<path d="M0 0 C4.98045424 -0.04974332 9.96076121 -0.08588098 14.94140625 -0.10986328 C16.63283816 -0.11986984 18.32425299 -0.13347931 20.015625 -0.15087891 C22.45837642 -0.17536403 24.90089749 -0.18653672 27.34375 -0.1953125 C28.08991577 -0.20563507 28.83608154 -0.21595764 29.6048584 -0.22659302 C42.07879367 -0.22920963 51.75487208 4.81536552 61.125 12.6875 C61.70596436 13.17532959 62.28692871 13.66315918 62.88549805 14.16577148 C64.30113199 15.39478461 65.65661132 16.69240695 67 18 C67 18.66 67 19.32 67 20 C62.69906795 18.70972038 58.87649478 17.00255244 54.9296875 14.90234375 C51.33030282 13.21923067 47.99525039 12.86589369 44.04785156 12.79467773 C43.06713684 12.77473251 42.08642212 12.75478729 41.07598877 12.73423767 C40.02481873 12.71752518 38.97364868 12.70081268 37.890625 12.68359375 C36.80867859 12.66281265 35.72673218 12.64203156 34.61199951 12.62062073 C31.15806387 12.55527069 27.70405263 12.49630771 24.25 12.4375 C21.90754429 12.39430096 19.5650962 12.35068622 17.22265625 12.30664062 C11.48184818 12.19960413 5.74096412 12.09829552 0 12 C0 8.04 0 4.08 0 0 Z " fill="#F4F8FA" transform="translate(630,336)"/>
<path d="M0 0 C2.64 0 5.28 0 8 0 C9.32 2.97 10.64 5.94 12 9 C13.32 6.03 14.64 3.06 16 0 C18.31 0 20.62 0 23 0 C23 6.27 23 12.54 23 19 C21.02 19 19.04 19 17 19 C16.67 18.01 16.34 17.02 16 16 C15.67 16.99 15.34 17.98 15 19 C13.02 19 11.04 19 9 19 C8.34 17.02 7.68 15.04 7 13 C6.67 15.31 6.34 17.62 6 20 C4.02 20 2.04 20 0 20 C0 13.4 0 6.8 0 0 Z " fill="#4A5058" transform="translate(323,819)"/>
<path d="M0 0 C1.98 0 3.96 0 6 0 C6 1.32 6 2.64 6 4 C6.99 4 7.98 4 9 4 C9 5.65 9 7.3 9 9 C8.01 9 7.02 9 6 9 C6 10.65 6 12.3 6 14 C6.99 14 7.98 14 9 14 C9 15.65 9 17.3 9 19 C3.63157895 19.35789474 3.63157895 19.35789474 1.125 17.9375 C-0.58196395 14.99772876 -0.18799766 12.32129197 0 9 C-0.66 9 -1.32 9 -2 9 C-2.33 8.34 -2.66 7.68 -3 7 C-3.3556604 7.85549438 -3.3556604 7.85549438 -3.71850586 8.72827148 C-4.78895634 11.29908382 -5.86317581 13.8683042 -6.9375 16.4375 C-7.31068359 17.33533203 -7.68386719 18.23316406 -8.06835938 19.15820312 C-8.42607422 20.01220703 -8.78378906 20.86621094 -9.15234375 21.74609375 C-9.48226318 22.53685303 -9.81218262 23.3276123 -10.15209961 24.14233398 C-11 26 -11 26 -12 27 C-13.99958364 27.04080783 -16.00045254 27.04254356 -18 27 C-17.649375 26.154375 -17.29875 25.30875 -16.9375 24.4375 C-14.91546913 17.0233868 -18.08196872 10.74540254 -21 4 C-17.6875 3.6875 -17.6875 3.6875 -14 4 C-12.0625 6.5 -12.0625 6.5 -11 9 C-10.34 7.35 -9.68 5.7 -9 4 C-6.03 4 -3.06 4 0 4 C0 2.68 0 1.36 0 0 Z " fill="#484F56" transform="translate(643,819)"/>
<path d="M0 0 C1.90845703 0.04060547 1.90845703 0.04060547 3.85546875 0.08203125 C5.31919922 0.13423828 5.31919922 0.13423828 6.8125 0.1875 C6.94789281 3.08490622 7.04676829 5.97595621 7.125 8.875 C7.16689453 9.69162109 7.20878906 10.50824219 7.25195312 11.34960938 C7.34073488 15.73542822 7.24192076 17.60826405 4.55078125 21.23828125 C0.47671374 24.1383664 -1.29426628 23.818885 -6.1875 23.1875 C-8.1875 21.875 -8.1875 21.875 -9.1875 20.1875 C-9.1875 19.1975 -9.1875 18.2075 -9.1875 17.1875 C-6.2175 17.1875 -3.2475 17.1875 -0.1875 17.1875 C0.1425 16.1975 0.4725 15.2075 0.8125 14.1875 C-0.1775 14.6825 -0.1775 14.6825 -1.1875 15.1875 C-6.56865942 15.64547101 -6.56865942 15.64547101 -8.85546875 13.953125 C-10.53466702 11.72732553 -10.5901516 10.45266007 -10.5625 7.6875 C-10.57023437 6.9140625 -10.57796875 6.140625 -10.5859375 5.34375 C-10.1875 3.1875 -10.1875 3.1875 -9.11328125 1.41796875 C-6.1303962 -0.48793144 -3.48679996 -0.09596697 0 0 Z " fill="#495057" transform="translate(416.1875,822.8125)"/>
<path d="M0 0 C6 0 12 0 18 0 C19.010625 -0.04125 20.02125 -0.0825 21.0625 -0.125 C24 0 24 0 27 2 C27.29296875 5.2578125 27.29296875 5.2578125 27.1875 9.125 C27.16042969 10.40632812 27.13335937 11.68765625 27.10546875 13.0078125 C27.07066406 13.99523437 27.03585937 14.98265625 27 16 C25.02 16 23.04 16 21 16 C21 12.37 21 8.74 21 5 C19.68 5 18.36 5 17 5 C17 8.63 17 12.26 17 16 C15.02 16 13.04 16 11 16 C10.67 12.7 10.34 9.4 10 6 C9.01 6 8.02 6 7 6 C6.67 8.97 6.34 11.94 6 15 C4.02 15 2.04 15 0 15 C0 10.05 0 5.1 0 0 Z " fill="#4C525A" transform="translate(443,823)"/>
<path d="M0 0 C8.91 0 17.82 0 27 0 C27 30.69 27 61.38 27 93 C19.74 93 12.48 93 5 93 C5 75.18 5 57.36 5 39 C5.33 39 5.66 39 6 39 C6 56.49 6 73.98 6 92 C12.27 92 18.54 92 25 92 C25 62.3 25 32.6 25 2 C16.75 2 8.5 2 0 2 C0 1.34 0 0.68 0 0 Z " fill="#50575E" transform="translate(433,707)"/>
<path d="M0 0 C7 0 7 0 8.77734375 1.75 C9.16019531 2.4925 9.54304687 3.235 9.9375 4 C10.33839844 4.7425 10.73929688 5.485 11.15234375 6.25 C11.43207031 6.8275 11.71179688 7.405 12 8 C12.33 5.36 12.66 2.72 13 0 C14.98 0 16.96 0 19 0 C19 6.27 19 12.54 19 19 C12 19 12 19 10.22265625 17.25 C9.1484375 15.16666667 8.07421875 13.08333333 7 11 C6.67 13.97 6.34 16.94 6 20 C4.02 20 2.04 20 0 20 C0 13.4 0 6.8 0 0 Z " fill="#474D55" transform="translate(808,819)"/>
<path d="M0 0 C2.375 1.875 2.375 1.875 4 4 C4 4.66 4 5.32 4 6 C-1.75 6.125 -1.75 6.125 -4 5 C-1.80048361 8.30668189 -1.80048361 8.30668189 1 11 C4.7500288 11.02524328 4.7500288 11.02524328 8 10 C7.690625 11.6396875 7.690625 11.6396875 7.375 13.3125 C6.59653475 17.0838401 6.59653475 17.0838401 9 20 C7.700625 19.979375 6.40125 19.95875 5.0625 19.9375 C3.70834367 19.91600546 2.35243917 19.92851801 1 20 C0.67 20.33 0.34 20.66 0 21 C-4.06779056 21.39113371 -6.35668834 21.36956202 -9.9375 19.3125 C-12 17 -12 17 -12.4375 14.375 C-12 12 -12 12 -10 10 C-9.855625 8.865625 -9.71125 7.73125 -9.5625 6.5625 C-9 3 -9 3 -7.8125 1.0625 C-5.04411529 -0.56034621 -3.14454533 -0.44922076 0 0 Z " fill="#51575F" transform="translate(538,818)"/>
<path d="M0 0 C1.98 0 3.96 0 6 0 C6 6.6 6 13.2 6 20 C3.69 20 1.38 20 -1 20 C-1.886875 20.2475 -2.77375 20.495 -3.6875 20.75 C-6 21 -6 21 -8.3125 19.625 C-10.69118704 15.92482016 -10.87842208 12.29714587 -10 8 C-8.671875 6.234375 -8.671875 6.234375 -7 5 C-3.8125 4.8125 -3.8125 4.8125 -1 5 C-0.67 3.35 -0.34 1.7 0 0 Z " fill="#4C535A" transform="translate(255,818)"/>
<path d="M0 0 C1.98 0 3.96 0 6 0 C6.33 1.65 6.66 3.3 7 5 C7.928125 4.938125 8.85625 4.87625 9.8125 4.8125 C13 5 13 5 14.671875 6.234375 C16.76875635 9.02199374 16.47451823 11.45088373 16.34765625 14.83203125 C16 17 16 17 14.375 19.625 C11.1516641 21.49114184 9.56759445 20.85622267 6 20 C4.02 20 2.04 20 0 20 C0 13.4 0 6.8 0 0 Z " fill="#464D55" transform="translate(752,818)"/>
<path d="M0 0 C2.64 0 5.28 0 8 0 C9.00605593 2.60197202 10.00502525 5.20629362 11 7.8125 C11.42925781 8.91948242 11.42925781 8.91948242 11.8671875 10.04882812 C12.13789062 10.76103516 12.40859375 11.47324219 12.6875 12.20703125 C12.93886719 12.8616333 13.19023438 13.51623535 13.44921875 14.19067383 C14 16 14 16 14 19 C12.02 19 10.04 19 8 19 C8 18.34 8 17.68 8 17 C5.36 17 2.72 17 0 17 C0 17.66 0 18.32 0 19 C-1.98 19 -3.96 19 -6 19 C-5.39124245 14.39583374 -4.15277044 10.43516676 -2.4375 6.125 C-1.75494141 4.39636719 -1.75494141 4.39636719 -1.05859375 2.6328125 C-0.70925781 1.76398437 -0.35992188 0.89515625 0 0 Z " fill="#4F565D" transform="translate(560,819)"/>
<path d="M0 0 C3.54817708 0.13020833 7.09635417 0.26041667 10.64453125 0.390625 C10.64453125 5.670625 10.64453125 10.950625 10.64453125 16.390625 C8.66453125 16.390625 6.68453125 16.390625 4.64453125 16.390625 C4.64453125 15.730625 4.64453125 15.070625 4.64453125 14.390625 C3.65453125 14.885625 3.65453125 14.885625 2.64453125 15.390625 C-0.29296875 15.703125 -0.29296875 15.703125 -3.35546875 15.390625 C-6.16419629 13.05001872 -6.33982872 11.53659863 -6.73046875 7.890625 C-6.18697498 2.81801652 -5.30397526 0.61745928 0 0 Z " fill="#4B525A" transform="translate(601.35546875,822.609375)"/>
<path d="M0 0 C3.99759367 0.74954881 5.4800927 2.44967333 8 5.5625 C8 6.2225 8 6.8825 8 7.5625 C5.69 7.5625 3.38 7.5625 1 7.5625 C1 6.9025 1 6.2425 1 5.5625 C0.34 5.5625 -0.32 5.5625 -1 5.5625 C1.37002413 8.18200036 3.95453979 9.79933883 7 11.5625 C8 12.5625 8 12.5625 8.375 14.875 C8 17.5625 8 17.5625 5.875 19.875 C2.46356032 21.87736677 0.88600392 22.29112574 -3 21.5625 C-5.875 19.1875 -5.875 19.1875 -8 16.5625 C-8 15.9025 -8 15.2425 -8 14.5625 C-5.69 14.5625 -3.38 14.5625 -1 14.5625 C-1 15.2225 -1 15.8825 -1 16.5625 C-0.34 16.5625 0.32 16.5625 1 16.5625 C-0.79871435 14.5744473 -2.19345455 13.46577273 -4.625 12.25 C-7 10.5625 -7 10.5625 -7.8125 7.375 C-7.874375 6.446875 -7.93625 5.51875 -8 4.5625 C-5.3473474 2.06588578 -3.61872485 0.67851091 0 0 Z " fill="#4D545B" transform="translate(837,817.4375)"/>
<path d="M0 0 C0 4.95 0 9.9 0 15 C-2.31 15 -4.62 15 -7 15 C-7.86625 15.268125 -8.7325 15.53625 -9.625 15.8125 C-12 16 -12 16 -14.8125 14 C-17 11 -17 11 -17.5625 7.4375 C-15.97075345 -2.28984005 -7.90450164 -0.31618007 0 0 Z " fill="#4F555C" transform="translate(365,823)"/>
<path d="M0 0 C3.54817708 0.13020833 7.09635417 0.26041667 10.64453125 0.390625 C10.64453125 5.340625 10.64453125 10.290625 10.64453125 15.390625 C0 15.78125 0 15.78125 -3.35546875 15.390625 C-6.08252029 12.84611443 -6.32688207 11.65743398 -6.73046875 7.890625 C-6.18697498 2.81801652 -5.30397526 0.61745928 0 0 Z " fill="#484F56" transform="translate(393.35546875,822.609375)"/>
<path d="M0 0 C1.98 0 3.96 0 6 0 C6.33 4.29 6.66 8.58 7 13 C7.99 13 8.98 13 10 13 C10.33 8.71 10.66 4.42 11 0 C12.98 0 14.96 0 17 0 C17.10853983 2.22808159 17.18583307 4.45769932 17.25 6.6875 C17.29640625 7.92886719 17.3428125 9.17023437 17.390625 10.44921875 C16.9319451 14.61861905 16.09593975 16.20366732 13 19 C10.52734375 19.62890625 10.52734375 19.62890625 7.9375 19.5625 C7.08027344 19.56378906 6.22304688 19.56507813 5.33984375 19.56640625 C3 19 3 19 1.203125 17.44921875 C-0.46003595 14.06349824 -0.32313961 10.9296592 -0.1875 7.25 C-0.17396484 6.55261719 -0.16042969 5.85523438 -0.14648438 5.13671875 C-0.1112945 3.42414459 -0.05749155 1.71197059 0 0 Z " fill="#464D55" transform="translate(848,819)"/>
<path d="M0 0 C2.625 1.8125 2.625 1.8125 4 4 C4 4.99 4 5.98 4 7 C0.16774573 7.08912219 -3.26562152 6.87867729 -7 6 C-7 8.31 -7 10.62 -7 13 C-1.555 12.505 -1.555 12.505 4 12 C2.75876289 16.96494845 2.75876289 16.96494845 0 19 C-3.97486363 19.86908035 -8.22395514 20.10806339 -11.765625 17.8984375 C-14.19527359 15.28726345 -15.00578678 12.96759402 -15.625 9.5 C-15.0057893 6.03242009 -14.19937088 3.71075312 -11.76171875 1.10546875 C-8.13035462 -1.17319211 -4.07579394 -0.81790806 0 0 Z " fill="#464D55" transform="translate(716,819)"/>
<path d="M0 0 C11.46693984 -0.36990129 11.46693984 -0.36990129 13.86328125 1.29296875 C15.77103468 4.15787682 15.35598841 6.67744148 15 10 C13.875 11.9375 13.875 11.9375 12 13 C8.8125 13.1875 8.8125 13.1875 6 13 C6 14.98 6 16.96 6 19 C4.02 19 2.04 19 0 19 C0 12.73 0 6.46 0 0 Z " fill="#4D545B" transform="translate(197,819)"/>
<path d="M0 0 C2.5 1.5625 2.5 1.5625 4 4 C4.5625 7.4375 4.5625 7.4375 4 11 C1.54999553 14.38677089 0.13607554 15.78698584 -4 16.5625 C-7.88265681 15.83450185 -9.46228253 15.06018871 -12 12 C-12.64812539 8.8777264 -12.62146539 6.12508309 -12 3 C-9.15777818 -0.908055 -4.45849945 -0.8039917 0 0 Z " fill="#4A5158" transform="translate(239,823)"/>
<path d="M0 0 C13.34916271 -0.36740815 13.34916271 -0.36740815 15.9375 1.09375 C17.54184575 3.97213503 17.28435886 6.42658514 17.1875 9.6875 C17.16042969 10.86699219 17.13335937 12.04648437 17.10546875 13.26171875 C17.07066406 14.16535156 17.03585937 15.06898438 17 16 C15.02 16 13.04 16 11 16 C11 12.37 11 8.74 11 5 C9.68 5.33 8.36 5.66 7 6 C6.67 9.3 6.34 12.6 6 16 C4.02 16 2.04 16 0 16 C0 10.72 0 5.44 0 0 Z " fill="#4C525A" transform="translate(490,823)"/>
<path d="M0 0 C2.66666667 0 5.33333333 0 8 0 C8.969375 -0.061875 9.93875 -0.12375 10.9375 -0.1875 C14 0 14 0 15.6796875 1.09375 C17.64803359 3.93562246 17.28870956 6.28011134 17.1875 9.6875 C17.16042969 10.86699219 17.13335938 12.04648437 17.10546875 13.26171875 C17.07066406 14.16535156 17.03585937 15.06898438 17 16 C15.02 16 13.04 16 11 16 C11 12.37 11 8.74 11 5 C9.68 5.33 8.36 5.66 7 6 C6.67 9.3 6.34 12.6 6 16 C4.02 16 2.04 16 0 16 C0 10.72 0 5.44 0 0 Z " fill="#4C525A" transform="translate(576,823)"/>
<path d="M0 0 C2.5 0.9375 2.5 0.9375 4 3 C4.61732964 6.81041399 5.06751926 10.50213703 2.75 13.75390625 C-0.50794735 16.07373929 -4.1838061 15.60618242 -8 15 C-10.5625 13.4375 -10.5625 13.4375 -12 11 C-12.55802097 7.09385318 -12.58392818 4.94888329 -10.5 1.5625 C-6.95824756 -0.65109528 -4.0669949 -0.65005246 0 0 Z " fill="#454C54" transform="translate(786,823)"/>
<path d="M0 0 C2.26875 -0.061875 4.5375 -0.12375 6.875 -0.1875 C8.78925781 -0.23970703 8.78925781 -0.23970703 10.7421875 -0.29296875 C11.81726563 -0.19628906 12.89234375 -0.09960938 14 0 C16.42130331 3.63195496 16.21022785 5.38349348 16.125 9.6875 C16.10695313 10.86699219 16.08890625 12.04648437 16.0703125 13.26171875 C16.04710937 14.16535156 16.02390625 15.06898438 16 16 C14.02 16 12.04 16 10 16 C10 12.37 10 8.74 10 5 C8.68 5 7.36 5 6 5 C6 8.63 6 12.26 6 16 C4.02 16 2.04 16 0 16 C0 10.72 0 5.44 0 0 Z " fill="#4D535B" transform="translate(369,823)"/>
<path d="M0 0 C1.98 0 3.96 0 6 0 C6 3.3 6 6.6 6 10 C7.65 10 9.3 10 11 10 C11 6.7 11 3.4 11 0 C12.98 0 14.96 0 17 0 C17 5.28 17 10.56 17 16 C15.02 16 13.04 16 11 16 C11 15.34 11 14.68 11 14 C10.01 14.495 10.01 14.495 9 15 C3.67437757 15.45324446 3.67437757 15.45324446 1.3203125 13.87109375 C-0.58814513 11.16650438 -0.29288929 9.07956804 -0.1875 5.8125 C-0.16042969 4.72582031 -0.13335938 3.63914062 -0.10546875 2.51953125 C-0.07066406 1.68808594 -0.03585937 0.85664062 0 0 Z " fill="#495058" transform="translate(731,823)"/>
<path d="M0 0 C1.98 0 3.96 0 6 0 C6.33 3.3 6.66 6.6 7 10 C7.66 10 8.32 10 9 10 C9.33 6.7 9.66 3.4 10 0 C11.98 0 13.96 0 16 0 C16 4.95 16 9.9 16 15 C5.2578125 15.1953125 5.2578125 15.1953125 2 15 C0 13 0 13 -0.1953125 9.9609375 C-0.17210937 8.77757812 -0.14890625 7.59421875 -0.125 6.375 C-0.10695313 5.18648437 -0.08890625 3.99796875 -0.0703125 2.7734375 C-0.04710937 1.85820313 -0.02390625 0.94296875 0 0 Z " fill="#454C54" transform="translate(265,823)"/>
<path d="M0 0 C3.45771396 0.72652356 4.99377896 2.65257888 7.0078125 5.421875 C7.0078125 6.741875 7.0078125 8.061875 7.0078125 9.421875 C3.7078125 9.421875 0.4078125 9.421875 -2.9921875 9.421875 C-2.9921875 10.081875 -2.9921875 10.741875 -2.9921875 11.421875 C-2.3321875 11.091875 -1.6721875 10.761875 -0.9921875 10.421875 C1.3407991 10.38165109 3.67487916 10.37867253 6.0078125 10.421875 C5.0703125 12.921875 5.0703125 12.921875 3.0078125 15.421875 C-0.05824179 16.06135001 -2.93149378 16.0872432 -5.9921875 15.421875 C-8.22214494 13.83612749 -8.8912161 12.96830844 -9.390625 10.265625 C-9.38289063 9.4921875 -9.37515625 8.71875 -9.3671875 7.921875 C-9.37492187 7.1484375 -9.38265625 6.375 -9.390625 5.578125 C-8.42946612 0.37655931 -4.87931826 -0.18004864 0 0 Z " fill="#50565E" transform="translate(481.9921875,822.578125)"/>
<path d="M0 0 C2.5 1.75 2.5 1.75 4 4 C4 5.32 4 6.64 4 8 C0.7 8 -2.6 8 -6 8 C-5.67 8.66 -5.34 9.32 -5 10 C-2.36 10 0.28 10 3 10 C2.625 11.9375 2.625 11.9375 2 14 C-1.20580406 15.60290203 -4.52182314 15.48117071 -8 15 C-10.5 13.4375 -10.5 13.4375 -12 11 C-12.55802097 7.09385318 -12.58392818 4.94888329 -10.5 1.5625 C-6.99165146 -0.63021784 -4.03275021 -0.82638324 0 0 Z " fill="#4A5058" transform="translate(437,823)"/>
<path d="M0 0 C0 3.96 0 7.92 0 12 C-0.99 12 -1.98 12 -3 12 C-3 15.63 -3 19.26 -3 23 C-4.98 23 -6.96 23 -9 23 C-9 19.37 -9 15.74 -9 12 C-9.66 12 -10.32 12 -11 12 C-11 10.35 -11 8.7 -11 7 C-10.34 7 -9.68 7 -9 7 C-8.896875 6.401875 -8.79375 5.80375 -8.6875 5.1875 C-7.09091985 0.10747225 -5.32451766 0 0 0 Z " fill="#575D64" transform="translate(802,816)"/>
<path d="M0 0 C2.5 1.875 2.5 1.875 4 4 C4 4.66 4 5.32 4 6 C1.03 6 -1.94 6 -5 6 C-5 6.99 -5 7.98 -5 9 C-2.03 9 0.94 9 4 9 C2.25 13.875 2.25 13.875 0 15 C-7.08571429 15.57142857 -7.08571429 15.57142857 -10.5 13.4375 C-12.58392818 10.05111671 -12.55802097 7.90614682 -12 4 C-9.12543212 -0.67117281 -5.06879464 -1.05946118 0 0 Z " fill="#484F57" transform="translate(675,823)"/>
<path d="M0 0 C2.5 1.875 2.5 1.875 4 4 C4 4.66 4 5.32 4 6 C1.03 6 -1.94 6 -5 6 C-5 6.99 -5 7.98 -5 9 C-2.03 9 0.94 9 4 9 C2.25 13.875 2.25 13.875 0 15 C-2.93421006 15.28395581 -5.15098834 15.49548029 -8 15 C-11.02791041 12.42627616 -11.86162709 10.84753406 -12.5 6.9375 C-12 4 -12 4 -10.5 1.625 C-7.01094845 -0.64288351 -4.05363687 -0.84727656 0 0 Z " fill="#464D54" transform="translate(295,823)"/>
<path d="M0 0 C1.19109375 0.00773438 1.19109375 0.00773438 2.40625 0.015625 C3.2003125 0.01046875 3.994375 0.0053125 4.8125 0 C6.90625 0.265625 6.90625 0.265625 8.90625 2.265625 C8.90625 3.255625 8.90625 4.245625 8.90625 5.265625 C6.92625 5.265625 4.94625 5.265625 2.90625 5.265625 C4.3603125 5.884375 4.3603125 5.884375 5.84375 6.515625 C8.90625 8.265625 8.90625 8.265625 9.96875 10.265625 C9.90625 12.265625 9.90625 12.265625 8.68359375 13.8671875 C6.45055193 15.62417425 5.22040367 15.66876654 2.40625 15.640625 C1.6328125 15.64835938 0.859375 15.65609375 0.0625 15.6640625 C-2.57620826 15.1764751 -3.48532252 14.37926367 -5.09375 12.265625 C-5.09375 11.605625 -5.09375 10.945625 -5.09375 10.265625 C0.53125 10.015625 0.53125 10.015625 3.90625 12.265625 C3.02032985 9.91560934 3.02032985 9.91560934 -0.09375 9.203125 C-1.08375 8.89375 -2.07375 8.584375 -3.09375 8.265625 C-4.09375 7.265625 -4.09375 7.265625 -4.28125 4.828125 C-4.04338821 1.57734717 -3.31474282 0.42052707 0 0 Z " fill="#484F56" transform="translate(685.09375,822.734375)"/>
<path d="M0 0 C1.98 0 3.96 0 6 0 C6 1.32 6 2.64 6 4 C6.99 4 7.98 4 9 4 C9 5.65 9 7.3 9 9 C8.01 9 7.02 9 6 9 C6 10.65 6 12.3 6 14 C6.99 14 7.98 14 9 14 C9 15.98 9 17.96 9 20 C5.625 19.6875 5.625 19.6875 2 19 C-0.4294516 15.3558226 -0.16179575 13.28758728 0 9 C-0.66 9 -1.32 9 -2 9 C-2 7.35 -2 5.7 -2 4 C-1.34 4 -0.68 4 0 4 C0 2.68 0 1.36 0 0 Z " fill="#4C535A" transform="translate(302,819)"/>
<path d="M0 0 C5.28 0 10.56 0 16 0 C16 1.32 16 2.64 16 4 C14.35 4 12.7 4 11 4 C11 8.95 11 13.9 11 19 C9.02 19 7.04 19 5 19 C5 14.05 5 9.1 5 4 C3.35 4 1.7 4 0 4 C0 2.68 0 1.36 0 0 Z " fill="#40474F" transform="translate(867,819)"/>
<path d="M0 0 C1.98 0 3.96 0 6 0 C6 1.32 6 2.64 6 4 C6.66 4 7.32 4 8 4 C8 5.65 8 7.3 8 9 C7.34 9 6.68 9 6 9 C6 10.65 6 12.3 6 14 C6.66 14 7.32 14 8 14 C8 15.65 8 17.3 8 19 C5.125 19.125 5.125 19.125 2 19 C0 17 0 17 -0.1953125 15.0546875 C-0.09765625 12.02734375 -0.09765625 12.02734375 0 9 C-0.66 9 -1.32 9 -2 9 C-2 7.35 -2 5.7 -2 4 C-1.34 4 -0.68 4 0 4 C0 2.68 0 1.36 0 0 Z " fill="#444B53" transform="translate(511,819)"/>
<path d="M0 0 C1.98 0 3.96 0 6 0 C6 6.93 6 13.86 6 21 C4.02 21 2.04 21 0 21 C0 14.07 0 7.14 0 0 Z " fill="#434A52" transform="translate(723,818)"/>
<path d="M0 0 C1.98 0 3.96 0 6 0 C6 6.93 6 13.86 6 21 C4.02 21 2.04 21 0 21 C0 14.07 0 7.14 0 0 Z " fill="#4B5259" transform="translate(614,818)"/>
<path d="M0 0 C1.65 0 3.3 0 5 0 C5 6.6 5 13.2 5 20 C3.35 20 1.7 20 0 20 C0 19.34 0 18.68 0 18 C-1.32 17.34 -2.64 16.68 -4 16 C-3.34 15.67 -2.68 15.34 -2 15 C-1.34444881 12.47266765 -1.34444881 12.47266765 -1 10 C-1.99 10 -2.98 10 -4 10 C-4 9.34 -4 8.68 -4 8 C-2.68 7.67 -1.36 7.34 0 7 C0 4.69 0 2.38 0 0 Z " fill="#3F464E" transform="translate(256,818)"/>
<path d="M0 0 C1.98 0 3.96 0 6 0 C6 0.66 6 1.32 6 2 C7.65 1.34 9.3 0.68 11 0 C11 1.98 11 3.96 11 6 C9.68 6.33 8.36 6.66 7 7 C6.67 9.97 6.34 12.94 6 16 C4.02 16 2.04 16 0 16 C0 10.72 0 5.44 0 0 Z " fill="#494F57" transform="translate(214,823)"/>
<path d="M0 0 C0.33 0 0.66 0 1 0 C1 6.6 1 13.2 1 20 C0.67 20 0.34 20 0 20 C-0.144375 19.21625 -0.28875 18.4325 -0.4375 17.625 C-0.87798925 15.03578982 -0.87798925 15.03578982 -2 13 C-3.051875 13.350625 -4.10375 13.70125 -5.1875 14.0625 C-8.7954681 14.94970527 -10.52632489 15.05262882 -14 14 C-14 11.69 -14 9.38 -14 7 C-12.34385343 6.61781233 -10.67542976 6.28604898 -9 6 C-8.67 6.33 -8.34 6.66 -8 7 C-5.66702567 7.04092937 -3.33294775 7.04241723 -1 7 C-0.67 4.69 -0.34 2.38 0 0 Z " fill="#E8E9E9" transform="translate(722,818)"/>
<path d="M0 0 C1.21236328 0.04060547 1.21236328 0.04060547 2.44921875 0.08203125 C3.06410156 0.11683594 3.67898438 0.15164063 4.3125 0.1875 C4.3125 0.8475 4.3125 1.5075 4.3125 2.1875 C3.3225 2.1875 2.3325 2.1875 1.3125 2.1875 C-0.1481285 4.83488916 -0.6875 6.08198334 -0.6875 9.1875 C0.3025 9.5175 1.2925 9.8475 2.3125 10.1875 C1.625 12.125 1.625 12.125 0.3125 14.1875 C-2.125 15.125 -2.125 15.125 -4.6875 15.1875 C-6.8330887 13.59495087 -7.59626999 12.68121534 -8.0859375 10.03125 C-8.07820313 9.2578125 -8.07046875 8.484375 -8.0625 7.6875 C-8.07023437 6.9140625 -8.07796875 6.140625 -8.0859375 5.34375 C-7.20579237 0.58061166 -4.46917575 -0.19431199 0 0 Z " fill="#474D55" transform="translate(413.6875,822.8125)"/>
<path d="M0 0 C5.50309598 -0.36687307 5.50309598 -0.36687307 7.671875 1.234375 C9.76909345 4.02244187 9.47112856 6.45426494 9.35546875 9.8359375 C9 12 9 12 7.25 14.5625 C5 16 5 16 1 16 C0.67 14.35 0.34 12.7 0 11 C0.66 10.67 1.32 10.34 2 10 C2.34900558 6.28263359 2.34900558 6.28263359 0.5 3.1875 C0.005 2.795625 -0.49 2.40375 -1 2 C-0.67 1.34 -0.34 0.68 0 0 Z " fill="#474D55" transform="translate(759,823)"/>
<path d="M0 0 C0.33 1.65 0.66 3.3 1 5 C0.01 5.33 -0.98 5.66 -2 6 C-2 6.99 -2 7.98 -2 9 C-1.01 9.66 -0.02 10.32 1 11 C0.34 12.32 -0.32 13.64 -1 15 C-3.3125 15.25 -3.3125 15.25 -6 15 C-8.7489728 12.63019586 -8.98650259 11.12597587 -9.375 7.5 C-8.6661451 0.8840209 -6.5373474 -0.58109755 0 0 Z " fill="#464D54" transform="translate(604,823)"/>
<path d="M0 0 C1.98 0 3.96 0 6 0 C6.33 0.99 6.66 1.98 7 3 C9.01508358 3.73323796 9.01508358 3.73323796 11 4 C10.67 4.66 10.34 5.32 10 6 C9.01 6 8.02 6 7 6 C6.67 8.97 6.34 11.94 6 15 C4.02 15 2.04 15 0 15 C0 10.05 0 5.1 0 0 Z " fill="#454C53" transform="translate(443,823)"/>
<path d="M0 0 C1.98 0 3.96 0 6 0 C6 5.28 6 10.56 6 16 C4.02 16 2.04 16 0 16 C0 10.72 0 5.44 0 0 Z " fill="#4E555C" transform="translate(655,823)"/>
<path d="M0 0 C1.65 0 3.3 0 5 0 C5 4.95 5 9.9 5 15 C3.35 15 1.7 15 0 15 C0 14.34 0 13.68 0 13 C-1.65 12.67 -3.3 12.34 -5 12 C-4.01 11.34 -3.02 10.68 -2 10 C-1.20201782 7.58392583 -1.20201782 7.58392583 -0.8125 4.875 C-0.65394531 3.96492187 -0.49539063 3.05484375 -0.33203125 2.1171875 C-0.22246094 1.41851563 -0.11289062 0.71984375 0 0 Z " fill="#3F464F" transform="translate(360,823)"/>
<path d="M0 0 C1.65 0 3.3 0 5 0 C5 4.95 5 9.9 5 15 C3.35 15 1.7 15 0 15 C-1.23689062 12.52621876 -1.13310087 10.82084683 -1.125 8.0625 C-1.12757813 7.18722656 -1.13015625 6.31195312 -1.1328125 5.41015625 C-1 3 -1 3 0 0 Z " fill="#424951" transform="translate(399,823)"/>
<path d="M0 0 C0.556875 0.928125 0.556875 0.928125 1.125 1.875 C3.48622906 4.5510596 5.60131652 5.0936844 9 6 C9 6.66 9 7.32 9 8 C8.46632813 7.855625 7.93265625 7.71125 7.3828125 7.5625 C1.49771237 6.09631589 -3.95009776 5.77265503 -10 6 C-10.33 4.68 -10.66 3.36 -11 2 C-6.94952424 0.64984141 -4.2079832 1.37915002 0 2 C0 1.34 0 0.68 0 0 Z " fill="#F5F5F5" transform="translate(680,827)"/>
<path d="M0 0 C0 6.93 0 13.86 0 21 C-1.98 21 -3.96 21 -6 21 C-6 20.34 -6 19.68 -6 19 C-4.68 19 -3.36 19 -2 19 C-2 13.39 -2 7.78 -2 2 C-2.99 1.67 -3.98 1.34 -5 1 C-2 0 -2 0 0 0 Z " fill="#545A62" transform="translate(729,818)"/>
<path d="M0 0 C0.33 0 0.66 0 1 0 C1.103125 1.093125 1.20625 2.18625 1.3125 3.3125 C2.02148565 7.47702143 2.02148565 7.47702143 5 10 C6.97620986 11.04622875 8.9737129 12.05439935 11 13 C11 13.66 11 14.32 11 15 C10.34 15 9.68 15 9 15 C9 14.34 9 13.68 9 13 C6.36 13 3.72 13 1 13 C1 14.98 1 16.96 1 19 C0.67 19 0.34 19 0 19 C0 12.73 0 6.46 0 0 Z " fill="#EFF0F0" transform="translate(827,819)"/>
<path d="M0 0 C0.33 0 0.66 0 1 0 C1 4.95 1 9.9 1 15 C0.01 15 -0.98 15 -2 15 C-2 13.35 -2 11.7 -2 10 C-2.99 10 -3.98 10 -5 10 C-5 8.35 -5 6.7 -5 5 C-3.68 4.67 -2.36 4.34 -1 4 C-0.67 2.68 -0.34 1.36 0 0 Z " fill="#DEDFE0" transform="translate(654,823)"/>
<path d="M0 0 C2.625 0.375 2.625 0.375 5 1 C4.67 2.65 4.34 4.3 4 6 C2.35 6 0.7 6 -1 6 C-1.625 4.125 -1.625 4.125 -2 2 C-1.34 1.34 -0.68 0.68 0 0 Z " fill="#52585F" transform="translate(656,815)"/>
<path d="M0 0 C2.875 -0.125 2.875 -0.125 6 0 C8 2 8 2 8 5 C6.35 5 4.7 5 3 5 C3 4.34 3 3.68 3 3 C2.01 3 1.02 3 0 3 C0 2.01 0 1.02 0 0 Z " fill="#3F464E" transform="translate(836,819)"/>
<path d="M0 0 C1.65 0 3.3 0 5 0 C4.79375 1.093125 4.5875 2.18625 4.375 3.3125 C3.59653475 7.0838401 3.59653475 7.0838401 6 10 C4.35 10 2.7 10 1 10 C1 7.37886292 1.31292445 5.49064888 2 3 C1.34 2.67 0.68 2.34 0 2 C0 1.34 0 0.68 0 0 Z " fill="#424950" transform="translate(541,828)"/>
<path d="M0 0 C1.98 0 3.96 0 6 0 C6.66 1.32 7.32 2.64 8 4 C5.6875 4.6875 5.6875 4.6875 3 5 C1.1875 3.6875 1.1875 3.6875 0 2 C0 1.34 0 0.68 0 0 Z " fill="#4C535A" transform="translate(680,833)"/>
<path d="M0 0 C2.5625 0.1875 2.5625 0.1875 4.5625 2.1875 C4.5625 3.1775 4.5625 4.1675 4.5625 5.1875 C2.9125 5.1875 1.2625 5.1875 -0.4375 5.1875 C-0.4375 4.1975 -0.4375 3.2075 -0.4375 2.1875 C-1.4275 1.8575 -2.4175 1.5275 -3.4375 1.1875 C-2.4375 0.1875 -2.4375 0.1875 0 0 Z " fill="#474D55" transform="translate(689.4375,822.8125)"/>
<path d="M0 0 C0.556875 0.928125 0.556875 0.928125 1.125 1.875 C3.48622906 4.5510596 5.60131652 5.0936844 9 6 C9 6.66 9 7.32 9 8 C5.37 7.01 1.74 6.02 -2 5 C-1.34 3.35 -0.68 1.7 0 0 Z " fill="#E6E7E8" transform="translate(680,827)"/>
<path d="M0 0 C-0.33 1.32 -0.66 2.64 -1 4 C-3.97 3.67 -6.94 3.34 -10 3 C-10.33 3.66 -10.66 4.32 -11 5 C-11 4.01 -11 3.02 -11 2 C-9.5422647 1.664061 -8.08378894 1.33133376 -6.625 1 C-5.40683594 0.7215625 -5.40683594 0.7215625 -4.1640625 0.4375 C-2 0 -2 0 0 0 Z " fill="#C5C7C9" transform="translate(417,837)"/>
<path d="M0 0 C3.3 0 6.6 0 10 0 C9.67 1.32 9.34 2.64 9 4 C9 3.34 9 2.68 9 2 C6.36 2.33 3.72 2.66 1 3 C0.67 2.01 0.34 1.02 0 0 Z " fill="#BFC1C3" transform="translate(431,831)"/>
<path d="M0 0 C2.97 0.33 5.94 0.66 9 1 C9 1.33 9 1.66 9 2 C5.38026598 3.31626692 2.90432869 4 -1 4 C-0.67 2.68 -0.34 1.36 0 0 Z " fill="#F0F0F1" transform="translate(290,828)"/>
<path d="M0 0 C-0.309375 0.53625 -0.61875 1.0725 -0.9375 1.625 C-2.17827439 4.3984957 -2.5909675 7.00042837 -3 10 C-3.66 10 -4.32 10 -5 10 C-5.3669579 3.51707705 -5.3669579 3.51707705 -3.625 1.0625 C-2 0 -2 0 0 0 Z " fill="#4A5058" transform="translate(779,824)"/>
<path d="M0 0 C0.66 0 1.32 0 2 0 C2 0.66 2 1.32 2 2 C2.61875 2.268125 3.2375 2.53625 3.875 2.8125 C6 4 6 4 8 7 C6 6 4 5 2 4 C1.67 4.66 1.34 5.32 1 6 C0 5 0 5 -0.0625 2.4375 C-0.041875 1.633125 -0.02125 0.82875 0 0 Z " fill="#424951" transform="translate(529,821)"/>
<path d="M0 0 C1.98 0.495 1.98 0.495 4 1 C3.67 2.32 3.34 3.64 3 5 C1.68 4.67 0.36 4.34 -1 4 C-0.67 2.68 -0.34 1.36 0 0 Z " fill="#ECEDED" transform="translate(602,828)"/>
<path d="M0 0 C1.98 0.495 1.98 0.495 4 1 C3.67 2.32 3.34 3.64 3 5 C1.68 4.67 0.36 4.34 -1 4 C-0.67 2.68 -0.34 1.36 0 0 Z " fill="#EBEBEC" transform="translate(413,828)"/>
<path d="M0 0 C1.98 0.495 1.98 0.495 4 1 C3.67 2.32 3.34 3.64 3 5 C1.68 4.67 0.36 4.34 -1 4 C-0.67 2.68 -0.34 1.36 0 0 Z " fill="#EBECEC" transform="translate(394,828)"/>
<path d="M0 0 C0.33 0.99 0.66 1.98 1 3 C-0.65 4.65 -2.3 6.3 -4 8 C-4.99 7.67 -5.98 7.34 -7 7 C-4.69 4.69 -2.38 2.38 0 0 Z " fill="#249AC9" transform="translate(407,275)"/>
<path d="M0 0 C1.32 0 2.64 0 4 0 C4 1.65 4 3.3 4 5 C2.68 5 1.36 5 0 5 C0 3.35 0 1.7 0 0 Z " fill="#EEEEEF" transform="translate(758,828)"/>
<path d="M0 0 C1.32 0 2.64 0 4 0 C4 1.65 4 3.3 4 5 C2.68 5 1.36 5 0 5 C0 3.35 0 1.7 0 0 Z " fill="#EEEEEF" transform="translate(251,828)"/>
<path d="M0 0 C1.9375 0.8125 1.9375 0.8125 4 2 C4.33 2.99 4.66 3.98 5 5 C2.69 5 0.38 5 -2 5 C-2 4.34 -2 3.68 -2 3 C-1.01 2.67 -0.02 2.34 1 2 C0.67 1.34 0.34 0.68 0 0 Z " fill="#4F555D" transform="translate(674,824)"/>
<path d="M0 0 C0.99 0.495 0.99 0.495 2 1 C2.40729228 3.32156597 2.74438677 5.6568787 3 8 C2.34 8 1.68 8 1 8 C0.67 8.66 0.34 9.32 0 10 C0 6.7 0 3.4 0 0 Z " fill="#ECECED" transform="translate(593,828)"/>
<path d="M0 0 C0.99 0 1.98 0 3 0 C3 0.66 3 1.32 3 2 C3.66 2 4.32 2 5 2 C5 2.66 5 3.32 5 4 C6.65 4 8.3 4 10 4 C10 4.33 10 4.66 10 5 C6.63295715 5.2295711 4.58629732 5.33943529 1.625 3.625 C1.08875 3.08875 0.5525 2.5525 0 2 C0 1.34 0 0.68 0 0 Z " fill="#6A6F75" transform="translate(830,834)"/>
<path d="M0 0 C1.670625 0.061875 1.670625 0.061875 3.375 0.125 C2.715 1.445 2.055 2.765 1.375 4.125 C-0.935 3.465 -3.245 2.805 -5.625 2.125 C-3.625 0.125 -3.625 0.125 0 0 Z " fill="#474E56" transform="translate(484.625,832.875)"/>
<path d="M0 0 C1.32 0.33 2.64 0.66 4 1 C4 2.32 4 3.64 4 5 C2.68 5 1.36 5 0 5 C0 3.35 0 1.7 0 0 Z " fill="#F2F2F2" transform="translate(355,828)"/>
<path d="M0 0 C0.66 0.33 1.32 0.66 2 1 C1.01 2.485 1.01 2.485 0 4 C-0.38499891 5.65549531 -0.72793135 7.3222433 -1 9 C-1.66 9 -2.32 9 -3 9 C-3.36923077 3.46153846 -3.36923077 3.46153846 -1.5 1.125 C-1.005 0.75375 -0.51 0.3825 0 0 Z " fill="#51575E" transform="translate(286,824)"/>
<path d="M0 0 C0.99 0 1.98 0 3 0 C3 1.65 3 3.3 3 5 C1.68 4.67 0.36 4.34 -1 4 C-0.67 2.68 -0.34 1.36 0 0 Z " fill="#EFF0F0" transform="translate(781,828)"/>
<path d="M0 0 C0.99 0.33 1.98 0.66 3 1 C3 2.32 3 3.64 3 5 C1.68 5 0.36 5 -1 5 C-0.67 3.35 -0.34 1.7 0 0 Z " fill="#F0F1F1" transform="translate(234,828)"/>
<path d="M0 0 C1.2065625 0.0309375 1.2065625 0.0309375 2.4375 0.0625 C2.1075 1.3825 1.7775 2.7025 1.4375 4.0625 C1.4375 3.0725 1.4375 2.0825 1.4375 1.0625 C-1.5325 3.5375 -1.5325 3.5375 -4.5625 6.0625 C-3.48963568 0.08511307 -3.48963568 0.08511307 0 0 Z " fill="#383F48" transform="translate(798.5625,816.9375)"/>
<path d="M0 0 C0.99 0.66 1.98 1.32 3 2 C3 2.66 3 3.32 3 4 C0.69 4 -1.62 4 -4 4 C-4 3.34 -4 2.68 -4 2 C-2.68 2 -1.36 2 0 2 C0 1.34 0 0.68 0 0 Z " fill="#535960" transform="translate(296,825)"/>
<path d="M0 0 C5.53846154 -0.36923077 5.53846154 -0.36923077 7.875 1.5 C8.24625 1.995 8.6175 2.49 9 3 C7.35 3.33 5.7 3.66 4 4 C4 3.34 4 2.68 4 2 C2.68 1.34 1.36 0.68 0 0 Z " fill="#686D74" transform="translate(532,818)"/>
</svg>
